<?xml version="1.0" encoding="UTF-8" standalone="no"?>
<!-- Created with Inkscape (http://www.inkscape.org/) -->
<svg
   xmlns:dc="http://purl.org/dc/elements/1.1/"
   xmlns:cc="http://creativecommons.org/ns#"
   xmlns:rdf="http://www.w3.org/1999/02/22-rdf-syntax-ns#"
   xmlns:svg="http://www.w3.org/2000/svg"
   xmlns="http://www.w3.org/2000/svg"
   xmlns:sodipodi="http://sodipodi.sourceforge.net/DTD/sodipodi-0.dtd"
   xmlns:inkscape="http://www.inkscape.org/namespaces/inkscape"
   width="80"
   height="15"
   id="svg2"
   sodipodi:version="0.32"
   inkscape:version="0.46"
   version="1.0"
   sodipodi:docbase="/home/aseigo/kde4/KDE/kdebase/workspace/plasma/desktoptheme/widgets"
   sodipodi:docname="branding.svg"
   inkscape:output_extension="org.inkscape.output.svg.inkscape">
  <sodipodi:namedview
     id="base"
     pagecolor="#ffffff"
     bordercolor="#666666"
     borderopacity="1.0"
     gridtolerance="10000"
     guidetolerance="10"
     objecttolerance="10"
     inkscape:pageopacity="0.0"
     inkscape:pageshadow="2"
     inkscape:zoom="2.8"
     inkscape:cx="-45.357144"
     inkscape:cy="66.506861"
     inkscape:document-units="px"
     inkscape:current-layer="layer1"
     inkscape:window-width="1357"
     inkscape:window-height="837"
     inkscape:window-x="46"
     inkscape:window-y="20"
     showgrid="false" />
  <defs
     id="defs4">
    <inkscape:perspective
       id="perspective8"
       inkscape:persp3d-origin="40 : 5 : 1"
       inkscape:vp_z="80 : 7.5 : 1"
       inkscape:vp_y="0 : 1000 : 0"
       inkscape:vp_x="0 : 7.5 : 1"
       sodipodi:type="inkscape:persp3d" />
    <inkscape:perspective
       sodipodi:type="inkscape:persp3d"
       inkscape:vp_x="0 : 526.18109 : 1"
       inkscape:vp_y="0 : 1000 : 0"
       inkscape:vp_z="744.09448 : 526.18109 : 1"
       inkscape:persp3d-origin="372.04724 : 350.78739 : 1"
       id="perspective2445" />
    <inkscape:perspective
       sodipodi:type="inkscape:persp3d"
       inkscape:vp_x="0 : 526.18109 : 1"
       inkscape:vp_y="0 : 1000 : 0"
       inkscape:vp_z="744.09448 : 526.18109 : 1"
       inkscape:persp3d-origin="372.04724 : 350.78739 : 1"
       id="perspective2449" />
  </defs>
  <metadata
     id="metadata7">
    <rdf:RDF>
      <cc:Work
         rdf:about="">
        <dc:format>image/svg+xml</dc:format>
        <dc:type
           rdf:resource="http://purl.org/dc/dcmitype/StillImage" />
      </cc:Work>
    </rdf:RDF>
  </metadata>
  <g
     inkscape:groupmode="layer"
     id="layer1"
     transform="translate(-335,-524.86218)"
     inkscape:label="Layer 1">
    <g
       id="brilliant"
       transform="matrix(1.0613551,0,0,1.0613551,-23.242655,-31.975976)">
      <path
         id="path2095"
         d="M 413.61811,528.46576 L 413.56891,528.46576 C 413.51203,528.46576 413.46273,528.42614 413.46273,528.38044 L 413.46273,527.7682 L 413.2959,527.97228 C 413.27697,527.99357 413.2428,528.00269 413.21253,528.00269 L 413.1935,528.00269 C 413.16322,528.00269 413.12906,527.99357 413.11013,527.97228 L 412.93951,527.7682 L 412.93951,528.38044 C 412.93951,528.42614 412.89021,528.46576 412.82955,528.46576 L 412.78034,528.46576 C 412.72347,528.46576 412.67417,528.42614 412.67417,528.38044 L 412.67417,527.64935 L 412.1623,527.64935 L 412.1623,528.38044 C 412.1623,528.42614 412.10921,528.46576 412.04865,528.46576 L 412.00313,528.46576 C 411.94626,528.46576 411.89695,528.42614 411.89695,528.38044 L 411.89695,527.64935 L 411.51408,527.64935 C 411.45721,527.64935 411.41169,527.61886 411.41169,527.57019 L 411.41169,527.52754 C 411.41169,527.4788 411.45721,527.44831 411.51408,527.44831 L 412.85614,527.44831 C 412.90923,527.44831 412.9433,527.46351 412.96232,527.48792 L 413.21631,527.79557 L 413.4703,527.48792 C 413.48923,527.46656 413.5196,527.44831 413.57648,527.44831 L 413.7471,527.44831 L 413.7471,528.38652 C 413.7471,528.43222 413.69401,528.47184 413.63335,528.47184"
         style="fill:#73ba25;fill-opacity:1;stroke:none" />
      <path
         id="path2097"
         d="M 369.73534,527.18332 C 367.90043,527.18332 366.88438,528.43222 366.88438,529.29736 L 366.88438,530.40621 C 366.88438,531.67648 368.17713,532.46543 369.37895,532.46543 L 373.58712,532.46543 C 374.11412,532.46543 374.22409,532.74258 374.22409,532.97715 L 374.22409,533.69304 C 374.22409,533.76915 374.20894,534.45767 373.58712,534.45767 L 367.84356,534.45767 C 367.27482,534.45767 366.86166,534.77444 366.86166,535.21004 L 366.86166,535.40805 C 366.86166,535.84062 367.27104,536.16051 367.84356,536.16051 L 373.90187,536.16051 C 375.48278,536.16051 376.50641,535.27703 376.50641,533.90625 L 376.50641,532.70913 C 376.50641,531.42357 375.35389,530.84791 374.21273,530.84791 L 370.07279,530.84791 C 369.44718,530.84791 369.1667,530.47624 369.1667,530.20821 L 369.1667,529.55019 C 369.1667,529.1329 369.51163,528.89528 370.11822,528.89528 L 374.70557,528.89528 C 375.26664,528.89528 375.68746,528.57236 375.68746,528.14283 L 375.68746,527.94483 C 375.68746,527.51834 375.25907,527.19244 374.68664,527.19244 L 369.74291,527.19244"
         style="fill:#73ba25;fill-opacity:1;stroke:none" />
      <path
         id="path2099"
         d="M 386.95864,527.18332 C 386.41649,527.18332 385.97674,527.53666 385.97674,527.97228 L 385.97674,533.63822 C 385.97674,534.08904 385.51797,534.45463 384.96068,534.45463 L 381.76091,534.45463 C 381.19984,534.45463 380.74485,534.08904 380.74485,533.63822 L 380.74485,527.97228 C 380.74485,527.53666 380.30889,527.18332 379.76295,527.18332 L 379.45209,527.18332 C 378.90616,527.18332 378.4702,527.53058 378.4702,527.97228 L 378.4702,533.85447 C 378.4702,535.22222 379.80848,536.21533 381.65473,536.21533 L 385.07443,536.21533 C 386.92069,536.21533 388.25897,535.22222 388.25897,533.85447 L 388.25897,527.97228 C 388.25897,527.53058 387.82679,527.18332 387.27707,527.18332 L 386.9662,527.18332"
         style="fill:#73ba25;fill-opacity:1;stroke:none" />
      <path
         id="path2101"
         d="M 393.08896,527.18332 C 391.25406,527.18332 390.238,528.43222 390.238,529.29736 L 390.238,530.40621 C 390.238,531.67648 391.53454,532.46543 392.73257,532.46543 L 396.94074,532.46543 C 397.46774,532.46543 397.58149,532.74258 397.58149,532.97715 L 397.58149,533.69304 C 397.58149,533.76915 397.56256,534.45767 396.94074,534.45767 L 391.19718,534.45767 C 390.62844,534.45767 390.21529,534.77444 390.21529,535.21004 L 390.21529,535.40805 C 390.21529,535.84062 390.62844,536.16051 391.19718,536.16051 L 397.2517,536.16051 C 398.8364,536.16051 399.85614,535.27703 399.85614,533.90625 L 399.85614,532.70913 C 399.85614,531.42357 398.70751,530.84791 397.56256,530.84791 L 393.42253,530.84791 C 392.79702,530.84791 392.51653,530.47624 392.51653,530.20821 L 392.51653,529.55019 C 392.51653,529.1329 392.86146,528.89528 393.46426,528.89528 L 398.05162,528.89528 C 398.6089,528.89528 399.03352,528.57236 399.03352,528.14283 L 399.03352,527.94483 C 399.03352,527.51834 398.60512,527.19244 398.02881,527.19244 L 393.08896,527.19244"
         style="fill:#73ba25;fill-opacity:1;stroke:none" />
      <path
         id="path2103"
         d="M 402.76776,527.18332 C 402.22572,527.18332 401.80868,527.50617 401.80868,527.9357 L 401.80868,535.40805 C 401.80868,535.83454 402.21048,536.16051 402.74883,536.16051 L 410.16056,536.16051 C 410.7293,536.16051 411.14256,535.84366 411.14256,535.40805 L 411.14256,535.21004 C 411.14256,534.77747 410.73308,534.45767 410.16056,534.45767 C 410.16056,534.45767 404.36392,534.45767 404.0909,534.45767 C 404.0909,534.26271 404.0909,532.74874 404.0909,532.55379 C 404.36392,532.55379 408.53801,532.55379 408.53801,532.55379 C 409.10666,532.55379 409.51991,532.23694 409.51991,531.79828 L 409.51991,531.60333 C 409.51991,531.16771 409.10666,530.84791 408.53801,530.84791 C 408.53801,530.84791 404.36392,530.84791 404.0909,530.84791 C 404.0909,530.65295 404.0909,529.0872 404.0909,528.89224 C 404.36392,528.89224 409.85348,528.89224 409.85348,528.89224 C 410.42222,528.89224 410.83548,528.5754 410.83548,528.13978 L 410.83548,527.94179 C 410.83548,527.50617 410.42222,527.1894 409.85348,527.1894 L 402.77165,527.1894"
         style="fill:#73ba25;fill-opacity:1;stroke:none" />
      <path
         id="path2105"
         d="M 339.75474,530.73819 C 338.8297,530.73819 338.07525,531.31697 338.07525,532.03285 L 338.07525,534.85063 C 338.07525,535.57563 338.80316,536.16659 339.69787,536.16659 L 341.96499,536.16659 C 342.85971,536.16659 343.5914,535.57563 343.5914,534.85063 L 343.5914,532.03285 C 343.5914,531.32001 342.83696,530.73819 341.91191,530.73819 L 339.75474,530.73819 z M 339.26568,534.7409 L 339.26568,532.16995 C 339.26568,531.86831 339.57276,531.62157 339.94809,531.62157 L 341.71478,531.62157 C 342.08253,531.62157 342.39718,531.87143 342.39718,532.16995 L 342.39718,534.7409 C 342.39718,535.04254 342.0901,535.28928 341.71478,535.28928 L 339.93293,535.28928 C 339.5576,535.28928 339.26568,535.04862 339.26568,534.7409"
         style="fill:#73ba25;fill-opacity:1;stroke:none" />
      <path
         id="path2107"
         d="M 348.73227,530.70473 C 348.07637,530.70473 347.5873,530.8936 347.18922,531.04591 C 346.95038,531.13722 346.74187,531.21645 346.57885,531.21645 C 346.51061,531.21645 346.44616,531.19212 346.41204,531.14947 L 346.26418,530.91793 C 346.23006,530.85703 346.07842,530.73819 345.88886,530.73819 L 345.66897,530.73819 C 345.45667,530.73819 345.28227,530.89056 345.28227,531.0824 L 345.28227,538.22581 C 345.28227,538.44814 345.49837,538.62485 345.77891,538.62485 L 345.97226,538.62485 C 346.24523,538.62485 346.46891,538.4451 346.46891,538.22581 L 346.46891,535.85583 C 346.46891,535.7858 346.52577,535.71265 346.57885,535.71265 C 346.74187,535.71265 346.95038,535.7858 347.19302,535.8772 C 347.5873,536.02037 348.08016,536.20308 348.73605,536.20308 L 348.94074,536.20308 C 350.09704,536.20308 350.81737,535.67311 350.81737,534.82014 L 350.81737,532.09376 C 350.81737,531.25303 350.0819,530.70777 348.94074,530.70777 L 348.73227,530.70777 L 348.73227,530.70777 L 348.73227,530.70473 z M 346.46511,534.68608 L 346.46511,532.22782 C 346.46511,531.88968 346.79495,531.62462 347.21577,531.62462 L 348.86873,531.62462 C 349.28955,531.62462 349.61934,531.88968 349.61934,532.22782 L 349.61934,534.68608 C 349.61934,535.01813 349.28576,535.28928 348.86873,535.28928 L 347.21577,535.28928 C 346.80253,535.28928 346.46511,535.01813 346.46511,534.68608"
         style="fill:#73ba25;fill-opacity:1;stroke:none" />
      <path
         id="path2109"
         d="M 354.17632,530.73819 C 353.2513,530.73819 352.4969,531.31697 352.4969,532.03285 L 352.4969,534.82926 C 352.4969,535.55427 353.22858,536.16963 354.09294,536.16963 L 356.43214,536.16963 C 356.7202,536.16963 356.92877,536.01117 356.92877,535.79188 L 356.92877,535.66999 C 356.92877,535.45071 356.7202,535.29232 356.43214,535.29232 L 354.51377,535.29232 C 353.97542,535.29232 353.69105,535.08208 353.69105,534.67696 C 353.69105,534.67696 353.69105,533.97331 353.69105,533.86055 C 353.84653,533.86055 357.15626,533.86055 357.15626,533.86055 C 357.70976,533.86055 358.04333,533.58644 358.04333,533.12338 L 358.04333,532.03895 C 358.04333,531.3261 357.28894,530.74435 356.36391,530.74435 L 354.1802,530.74435 L 354.17632,530.73819 z M 353.68726,532.15771 C 353.68726,531.85919 353.9792,531.62157 354.35451,531.62157 L 356.17806,531.62157 C 356.55346,531.62157 356.8453,531.85615 356.8453,532.15771 C 356.8453,532.15771 356.8453,532.91625 356.8453,533.02894 C 356.69749,533.02894 353.83517,533.02894 353.68726,533.02894 C 353.68726,532.91625 353.68726,532.15771 353.68726,532.15771"
         style="fill:#73ba25;fill-opacity:1;stroke:none" />
      <path
         id="path2111"
         d="M 362.86576,530.70473 C 362.21365,530.70473 361.72081,530.89056 361.32648,531.04286 C 361.08006,531.13418 360.8678,531.21645 360.69718,531.21645 C 360.62138,531.21645 360.591,531.21037 360.53413,531.12809 L 360.39768,530.92706 C 360.32187,530.80221 360.1892,530.73819 360.00722,530.73819 L 359.8138,530.73819 C 359.58261,530.73819 359.41577,530.88136 359.41577,531.0824 L 359.41577,535.76747 C 359.41577,535.98988 359.63561,536.16963 359.9124,536.16963 L 360.10573,536.16963 C 360.37875,536.16963 360.60236,535.98988 360.60236,535.76747 L 360.60236,532.22173 C 360.60236,531.88968 360.93982,531.61853 361.35308,531.61853 L 363.006,531.61853 C 363.41925,531.61853 363.75662,531.88968 363.75662,532.22173 L 363.75662,535.76747 C 363.75662,535.98988 363.97654,536.16963 364.25334,536.16963 L 364.44667,536.16963 C 364.71959,536.16963 364.9433,535.98988 364.9433,535.76747 L 364.9433,532.09072 C 364.9433,531.24999 364.20782,530.70473 363.06666,530.70473 L 362.85818,530.70473"
         style="fill:#73ba25;fill-opacity:1;stroke:none" />
    </g>
  </g>
</svg>
